<?xml version="1.0" encoding="UTF-8" standalone="no"?>
<!DOCTYPE svg PUBLIC "-//W3C//DTD SVG 1.1//EN" "http://www.w3.org/Graphics/SVG/1.1/DTD/svg11.dtd">
<svg version="1.1" xmlns="http://www.w3.org/2000/svg" xmlns:xlink="http://www.w3.org/1999/xlink" preserveAspectRatio="xMidYMid meet" viewBox="0 0 640 640" width="640" height="640"><defs><path d="M466.5 253.38L368.88 253.38C368.88 213.78 368.88 191.78 368.88 187.38C368.88 159.5 382.5 132.38 426.25 132.38C429.21 132.38 444 132.38 470.63 132.38C470.63 80.33 470.63 51.41 470.63 45.63C470.63 45.63 430.38 38.75 391.75 38.75C311.38 38.75 258.75 87.5 258.75 175.75C258.75 180.93 258.75 206.8 258.75 253.38L169.38 253.38L169.38 355.13L258.75 355.13L258.75 601.25L368.75 601.25L368.75 355.13L450.88 355.13L466.5 253.38Z" id="c4VnNzjcBC"></path></defs><g><g><g><use xlink:href="#c4VnNzjcBC" opacity="1" fill="#ffffff" fill-opacity="1"></use><g><use xlink:href="#c4VnNzjcBC" opacity="1" fill-opacity="0" stroke="#000000" stroke-width="1" stroke-opacity="0"></use></g></g></g></g></svg>